<svg version="1.2" xmlns="http://www.w3.org/2000/svg" viewBox="0 0 1560 456" width="1560" height="456">
	<title>Bank_Mandiri_logo_2016-svg</title>
	<defs>
		<clipPath clipPathUnits="userSpaceOnUse" id="cp1">
			<path d="m0-15.16h1559.99v470.42h-1559.99z"/>
		</clipPath>
	</defs>
	<style>
		.s0 { fill: #003a70 } 
		.s1 { fill: #ffb700 } 
	</style>
	<g id="layer1">
		<g id="g14">
			<g id="Clip-Path: g16" clip-path="url(#cp1)">
				<g id="g16">
					<path id="&lt;/Layer group&gt;" fill-rule="evenodd" class="s0" d="m1.7 312.9c0-22.6-0.5-41.6-1.7-58.5h42.8l2 29h1.2c9.7-15.3 27.4-33.5 60.5-33.5 25.8 0 46 14.6 54.4 36.4h0.9c6.9-10.9 14.9-19 24.2-24.6 10.9-7.7 23.4-11.8 39.5-11.8 32.7 0 65.7 22.2 65.7 85.2v115.7h-48.4v-108.5c0-32.6-11.3-52-35-52-17 0-29.5 12.1-34.7 26.2-1.2 4.9-2.5 10.9-2.5 16.5v117.8h-48.4v-113.7c0-27.4-10.9-46.8-33.9-46.8-18.5 0-31 14.5-35.4 28.2-2 4.9-2.9 10.5-2.9 16.2v116.1h-48.3zm478.1 90.8c0 17.7 0.8 35 2.8 47.2h-44.8l-3.2-21.8h-1.2c-12.1 15.3-32.7 26.2-58.1 26.2-39.5 0-61.7-28.6-61.7-58.5 0-49.6 44-74.6 116.6-74.2v-3.2c0-12.9-5.3-34.3-39.9-34.3-19.4 0-39.6 6.1-52.9 14.5l-9.7-32.2c14.5-8.9 40-17.4 71-17.4 62.9 0 81.1 39.9 81.1 82.7zm-48.4-48.8c-35.1-0.8-68.6 6.8-68.6 36.7 0 19.3 12.5 28.2 28.3 28.2 19.7 0 34.3-12.9 38.6-27 1.3-3.6 1.7-7.7 1.7-10.9zm82.7-41.9c0-22.7-0.4-41.6-1.6-58.5h43.5l2.4 29.4h1.2c8.5-15.3 29.9-33.9 62.5-33.9 34.4 0 69.9 22.2 69.9 84.3v116.6h-49.7v-110.9c0-28.3-10.5-49.7-37.5-49.7-19.7 0-33.4 14.1-38.7 29.1-1.6 4.4-2 10.5-2 16.1v115.4h-50zm392.9-137.4v220.1c0 20.1 0.9 41.9 1.6 55.2h-44.3l-2-31h-0.8c-11.7 21.7-35.6 35.5-64.2 35.5-46.8 0-83.9-39.9-83.9-100.4-0.4-65.8 40.8-105 88-105 27 0 46.4 11.3 55.2 25.9h0.8v-100.3zm-49.6 160.8c0-4.1-0.4-8.9-1.2-12.9-4.4-19.4-20.1-35.1-42.7-35.1-31.9 0-49.6 28.2-49.6 64.9 0 35.9 17.7 62.2 49.2 62.2 20.1 0 37.9-13.7 42.7-35.1 1.2-4.5 1.6-9.4 1.6-14.6zm84.7-81.9h50.1v196.5h-50.1zm85.1 63.3c0-26.6-0.4-45.6-1.6-63.3h43.2l1.6 37.5h1.6c9.7-27.9 32.7-37.5 53.7-37.5 4.8 0 7.6-0.9 11.7 0v43.6c-4.1-0.9-8.5-1.7-14.6-1.7-23.8 0-39.9 15.3-44.3 37.5-0.8 4.5-1.6 9.7-1.6 15.4v101.6h-49.7zm133.2-63.3h49.9v196.4h-49.9z"/>
					<g id="g46">
						<path id="path48" fill-rule="evenodd" class="s1" d="m1560 98.7l-131.2 75.7c-1.9 1.3-15.3 8.5-27.1 8.7-18 0.4-29.8-7.9-42.8-22.5-22.2-24.9-38-60.6-89.1-65.2-16.3-1.5-48.2 2.3-83 22.7-0.1 0-109.6 63.5-109.6 63.5-13.5 8-22.4 9-22.4 9 0 0-24 7.1-38.6-10.8-4.5-5.6-30-37.3-30-37.3 0 0-19.6-23.6-42.1-33.1-25-10-62.8-10-111.7 16.8-0.4 0.2-113.5 65.7-113.5 65.7-30.6 17.6-65.9 2.5-81.5-16.9l-33.5-41.1c0 0 28.3-16.2 64.7-37 0 0 0 0 0 0 0 0 88.4-50.6 126.4-72.3 28.7-16.2 58-16.1 63.9-15.9 39.9 0.8 57.8 27.3 58.6 28.3 1.1 1.3 28.8 35.9 29.2 36.4 21.1 28.5 58.4 24.9 74.5 16.7 26.5-15.2 97.3-55.8 127.3-73.2 56.1-32.1 103-12.8 121.6 10.5 3 4.3 31.6 38.9 32.7 40.2 17.6 21.8 49.9 25 72.3 14.5 31.5-14.8 63.3-35.9 72.1-40.3 20.9-10.3 47.1-23 71.8 5.1 27.6 31.6 41 51.8 41 51.8z"/>
					</g>
				</g>
			</g>
		</g>
	</g>
</svg>